<?xml version="1.0" standalone="no"?>
<!DOCTYPE svg PUBLIC "-//W3C//DTD SVG 20010904//EN"
 "http://www.w3.org/TR/2001/REC-SVG-20010904/DTD/svg10.dtd">
<svg version="1.0" xmlns="http://www.w3.org/2000/svg"
 width="128.000000pt" height="130.000000pt" viewBox="0 0 128.000000 130.000000"
 preserveAspectRatio="xMidYMid meet">

<g transform="translate(0.000000,130.000000) scale(0.100000,-0.100000)"
fill="#000000" stroke="none">
<path d="M490 1244 c-219 -47 -401 -229 -454 -454 -20 -83 -20 -207 0 -290 52
-222 236 -408 459 -465 77 -20 222 -19 304 1 198 49 376 219 443 424 15 46 22
96 24 175 2 93 1 102 -7 60 -5 -27 -14 -72 -19 -100 -35 -176 -206 -336 -387
-364 -73 -11 -183 1 -254 30 -185 72 -301 254 -287 448 8 114 68 211 167 269
37 22 57 26 115 26 88 1 137 -16 189 -63 58 -53 87 -120 87 -207 0 -130 -71
-221 -188 -239 l-47 -8 35 -13 c54 -19 177 -17 225 5 54 24 119 100 146 170
31 77 37 211 14 281 -42 125 -121 217 -237 275 -110 54 -207 66 -328 39z"/>
</g>
</svg>
